HIERARCHY
ROOT root
{
	OFFSET	0	13.1	24.9
	CHANNELS 6  Xposition Yposition Zposition Xrotation Yrotation Zrotation
	JOINT spine_1
	{
		OFFSET	0	9.99999	0
		CHANNELS 3  Xrotation Yrotation Zrotation
		JOINT spine_2
		{
			OFFSET	0	112	-10
			CHANNELS 3  Xrotation Yrotation Zrotation
			JOINT spine_3
			{
				OFFSET	0	206.5	19.3
				CHANNELS 3  Xrotation Yrotation Zrotation
				JOINT spine_4
				{
					OFFSET	0	110.4	14.6
					CHANNELS 3  Xrotation Yrotation Zrotation
					JOINT neck_1
					{
						OFFSET	0	71.8	-50.3
						CHANNELS 3  Xrotation Yrotation Zrotation
						JOINT neck_2
						{
							OFFSET	0	86.2	-25.8
							CHANNELS 3  Xrotation Yrotation Zrotation
							JOINT head_ee
							{
								OFFSET	0	179.8	-8.7
								CHANNELS 3  Xrotation Yrotation Zrotation
								End Site
								{
									OFFSET	1	0	0
								}
							}
						}
					}
					JOINT left_clavicle
					{
						OFFSET	-43.2	22.4	-70.8
						CHANNELS 3  Xrotation Yrotation Zrotation
						JOINT left_shoulder
						{
							OFFSET	-93.9	-5.79999	48.7
							CHANNELS 3  Xrotation Yrotation Zrotation
							JOINT left_elbow
							{
								OFFSET	-291.4	-30.8	15.2
								CHANNELS 3  Xrotation Yrotation Zrotation
								JOINT left_lowarm_twist
								{
									OFFSET	-110.7	-3.89999	13.6
									CHANNELS 3  Xrotation Yrotation Zrotation
									JOINT left_hand
									{
										OFFSET	-110.7	-3.89999	13.6
										CHANNELS 3  Xrotation Yrotation Zrotation
										JOINT left_ee
										{
											OFFSET	-80.8	-5.10001	12.1
											CHANNELS 3  Xrotation Yrotation Zrotation
											End Site
											{
												OFFSET	1	0	0
											}
										}
									}
								}
							}
						}
					}
					JOINT right_clavicle
					{
						OFFSET	43.2	22.4	-70.8
						CHANNELS 3  Xrotation Yrotation Zrotation
						JOINT right_shoulder
						{
							OFFSET	93.9	-5.79999	48.7
							CHANNELS 3  Xrotation Yrotation Zrotation
							JOINT right_elbow
							{
								OFFSET	291.4	-30.8	15.2
								CHANNELS 3  Xrotation Yrotation Zrotation
								JOINT right_lowarm_twist
								{
									OFFSET	110.7	-3.89999	13.6
									CHANNELS 3  Xrotation Yrotation Zrotation
									JOINT right_hand
									{
										OFFSET	110.7	-3.89999	13.6
										CHANNELS 3  Xrotation Yrotation Zrotation
										JOINT right_ee
										{
											OFFSET	80.8	-5.10001	12.1
											CHANNELS 3  Xrotation Yrotation Zrotation
											End Site
											{
												OFFSET	1	0	0
											}
										}
									}
								}
							}
						}
					}
				}
			}
		}
	}
	JOINT left_hip
	{
		OFFSET	-82.8	-127.5	0.300001
		CHANNELS 3  Xrotation Yrotation Zrotation
		JOINT left_knee
		{
			OFFSET	-28.2	-396.7	2.2
			CHANNELS 3  Xrotation Yrotation Zrotation
			JOINT left_ankle
			{
				OFFSET	-11.7	-411.3	35.4
				CHANNELS 3  Xrotation Yrotation Zrotation
				JOINT left_toes
				{
					OFFSET	0	-60	-88.6
					CHANNELS 3  Xrotation Yrotation Zrotation
					JOINT left_foot_ee
					{
						OFFSET	-22.5	-16.5	-42.2
						CHANNELS 3  Xrotation Yrotation Zrotation
						End Site
						{
							OFFSET	1	0	0
						}
					}
				}
			}
		}
	}
	JOINT right_hip
	{
		OFFSET	82.8	-127.5	0.300001
		CHANNELS 3  Xrotation Yrotation Zrotation
		JOINT right_knee
		{
			OFFSET	28.2	-396.7	2.2
			CHANNELS 3  Xrotation Yrotation Zrotation
			JOINT right_ankle
			{
				OFFSET	11.7	-411.3	35.4
				CHANNELS 3  Xrotation Yrotation Zrotation
				JOINT right_toes
				{
					OFFSET	0	-60	-88.6
					CHANNELS 3  Xrotation Yrotation Zrotation
					JOINT right_foot_ee
					{
						OFFSET	22.5	-16.5	-42.2
						CHANNELS 3  Xrotation Yrotation Zrotation
						End Site
						{
							OFFSET	1	0	0
						}
					}
				}
			}
		}
	}
}
MOTION
Frames: 5
Frame Time: 0.02
2785.45138622 708.376 -1704.59739871 -0.342589760031 61.5829751759 0.276460959214 0.728049 0.172779 2.51973 0.731581 0.0121437 2.52561 0.733053 -0.487586 2.47816 0.724495 -0.0902181 2.52403 -10.2259 5.7989 -2.93958 -10.2535 12.8981 -1.39161 -0.0 0.0 -0.0 -0.75942 12.2238 0.174837 13.4772 -27.9208 65.0444 1.27482 -32.2713 0.368832 -35.5897 -2.4948 3.72625 -0.104124 1.088 -0.235328 -0.0 0.0 -0.0 8.82894 -2.9198 -17.1482 -21.9668 1.68798 -66.182 0.515109 14.3149 -0.0646851 84.2463 4.3365 8.83079 -4.22406 -27.9837 12.1318 0.0 0.0 0.0 -1.63113 5.07604 -0.924868 5.95499 -0.290614 -0.866935 21.0461 0.628411 -2.8774 -12.9178 0.0 0.0 -0.0 0.0 -0.0 17.838 12.2792 -0.648026 -62.8407 2.51441 -8.83077 -17.5377 -9.91315 -2.63412 -21.2728 0.0 0.0 0.0 0.0 0.0 
2770.69476797 707.066 -1697.10363004 -1.87565778544 60.1505170307 2.12875705458 0.901603 0.168332 2.26667 0.904461 0.0237948 2.27279 0.906049 -0.419357 2.23391 0.89909 -0.0613843 2.27208 -9.29978 4.35294 -4.25132 -9.27031 11.0876 -3.1371 -0.0 0.0 -0.0 0.52992 11.6941 2.27417 12.9486 -26.8717 62.7087 1.37017 -34.1647 0.421077 -33.4805 -2.286 3.55421 -0.483981 -2.28417 -4.21764 -0.0 0.0 -0.0 8.28153 -2.84555 -16.0721 -21.5649 2.75891 -65.2658 0.436 12.1878 -0.0465484 85.1847 4.44865 8.87461 -4.63405 -28.1551 14.3198 0.0 0.0 0.0 -2.31737 6.43505 -0.858261 5.9959 -0.292922 -0.872784 21.6252 1.73957 -2.94236 -12.0834 0.0 0.0 -0.0 0.0 -0.0 19.1788 11.166 -1.28925 -60.7073 2.27684 -8.6029 -18.7882 -9.10674 -2.82322 -23.5663 0.0 0.0 0.0 0.0 0.0 
2759.89437462 701.563 -1683.59350475 -2.03924462233 62.488679113 2.85437239383 0.793345 0.0242789 1.93743 0.795428 -0.0990306 1.93505 0.792516 -0.477782 1.87777 0.787638 -0.175285 1.92964 -8.10859 4.53128 -3.14988 -8.08612 10.6803 -2.12708 -0.0 0.0 -0.0 1.17233 9.6226 3.17002 14.1898 -26.505 60.7832 1.41334 -34.9949 0.445576 -31.1579 -2.06358 3.35606 -1.04758 -1.97787 -7.88797 -0.0 0.0 -0.0 8.16584 -3.33517 -15.828 -22.8867 3.58973 -64.7241 0.394347 11.0536 -0.0381576 85.2141 4.45218 8.87596 -5.25129 -28.4431 17.6281 0.0 0.0 0.0 -3.43095 8.12094 -1.43076 5.81362 -0.282674 -0.846715 22.705 1.83875 -3.07214 -14.3689 0.0 0.0 -0.0 0.0 -0.0 20.7855 13.4758 -3.34843 -53.344 1.52571 -7.7526 -24.8644 -5.19546 -3.74627 -37.0723 0.0 0.0 0.0 0.0 0.0 
2744.77967927 698.074 -1657.21607639 -1.09969712561 64.6699233585 2.52507116443 0.826139 0.0148229 1.77434 0.827885 -0.0980947 1.77168 0.825195 -0.44372 1.71804 0.821115 -0.166864 1.76654 -7.49313 4.56902 -3.87921 -7.44587 11.2763 -2.9079 -0.0 0.0 -0.0 1.55261 8.62067 3.74612 14.8853 -26.4859 59.4126 1.45007 -35.6884 0.466822 -29.7361 -1.93148 3.23041 -1.34505 -1.49425 -9.69146 -0.0 0.0 -0.0 7.87819 -2.94006 -15.2791 -23.6656 4.11309 -64.1433 0.378634 10.6234 -0.035203 85.1711 4.44702 8.87399 -5.89419 -29.2054 20.7527 0.0 0.0 0.0 -3.8099 9.92958 -2.09082 2.1518 -0.0945725 -0.316625 26.3735 1.76345 -3.50024 -16.0973 0.0 0.0 -0.0 0.0 -0.0 20.6861 16.0152 -4.67169 -40.8969 0.524808 -6.12336 -23.7786 -2.77438 -3.5955 -40.2378 0.0 0.0 0.0 0.0 0.0 
2724.92619192 699.209 -1613.54568283 -0.932056464373 69.0342764425 2.83165878026 0.613945 0.200248 1.19827 0.614735 0.123599 1.20859 0.617638 -0.120162 1.20893 0.615606 0.07226 1.21274 -9.00292 8.03476 -3.41787 -9.02385 17.4196 -1.47298 -0.0 0.0 -0.0 2.26033 6.52968 4.845 16.0175 -26.6951 58.1034 1.6181 -38.7114 0.568451 -29.0253 -1.86663 3.16638 -1.43902 3.18575 -8.20694 -0.0 0.0 -0.0 7.519 -3.5508 -14.565 -24.952 4.3675 -62.8163 0.355409 9.98532 -0.0310485 85.3274 4.46577 8.88111 -5.9132 -29.387 20.7134 0.0 0.0 0.0 -6.24898 14.4042 -1.68527 2.97796 -0.134038 -0.437231 28.0631 1.05104 -3.69316 -20.6891 0.0 0.0 -0.0 0.0 -0.0 19.6104 17.3326 -4.41702 -15.5737 -0.322088 -2.3609 -11.0702 -0.900487 -1.66812 -40.1704 0.0 0.0 0.0 0.0 0.0 
